<?xml version="1.0" encoding="utf-8"?>
<!-- Generator: Adobe Illustrator 19.0.0, SVG Export Plug-In . SVG Version: 6.00 Build 0)  -->
<svg version="1.1" id="Layer_1" xmlns="http://www.w3.org/2000/svg" xmlns:xlink="http://www.w3.org/1999/xlink" x="0px" y="0px"
	 viewBox="0 0 323.7 507.1" style="enable-background:new 0 0 323.7 507.1;" xml:space="preserve">
<style type="text/css">
	.st0{fill:#CC2031;}
	.st1{fill:#FFFFFF;}
	.st2{fill:#010101;}
</style>
<g id="XMLID_1_">
	<rect x="0" class="st0" width="323.7" height="507.1"/>
	<polygon class="st1" points="229.3,391.8 227.9,391.8 227.9,393.3 227.9,400.7 217.3,425.1 206.7,399.9 206.7,393.3 206.7,391.8 
		205.2,391.8 197.5,391.8 196,391.8 196,393.3 196,457.6 196,459.2 206.7,459.2 206.7,457.6 206.7,428.2 213.4,444.2 221.3,444.3 
		227.9,428.4 227.9,457.6 227.9,459.2 238.5,459.2 238.5,457.6 238.5,393.3 238.5,391.8 237.1,391.8 	"/>
	<polygon class="st1" points="46.7,391.8 46.7,459.2 77.8,459.2 77.8,443.6 67.1,443.6 67.1,448.2 57.3,448.2 57.3,402.9 
		67.1,402.9 67.1,408.3 77.8,408.3 77.8,391.8 	"/>
	<polygon class="st1" points="246.2,391.8 246.1,391.8 246.1,419.4 242.5,419.4 242.5,430.6 246.1,430.6 246.1,459.1 277.1,459.2 
		277.1,443.6 266.5,443.6 266.5,448.2 256.7,448.2 256.7,430.6 274,430.6 274,419.4 256.7,419.4 256.7,402.9 266.6,402.9 
		266.6,408.3 277.2,408.3 277.2,391.8 	"/>
	<path class="st1" d="M188.7,391.8h-0.5H181h-1.5h-9.7h-1.5h-7.7h-1.5v1.5v8.1v1.5v56.2l31.1,0v-65.9v-1.5h-0.5H188.7z M179.5,448.2
		h-9.7v-45.2h9.7V448.2z"/>
	<polygon class="st1" points="103.7,391.8 103.7,419.4 94.3,419.4 94.3,391.8 83.6,391.8 83.6,419.4 80,419.4 80,430.6 83.6,430.6 
		83.6,459.2 94.3,459.2 94.3,430.6 103.7,430.6 103.7,459.2 114.4,459.2 114.4,391.8 	"/>
	<path class="st1" d="M154.2,452.8l-7.9-23.3l6.4-7.2v-30.6h-1.5h-29.6v27.6l0,0h-3.5v11.2h3.6v28.6h10.7v-28.4v0h3.9l9.5,28.4h8.4
		L154.2,452.8z M142,419.6h-9.7v-16.6h9.7V419.6z"/>
	<path class="st1" d="M258.1,335.9h-18.5l-3.3-92.6l9.8-25.6l0.3-0.8l0-0.8l0.3-25.6l0-3.6l-3.5-0.9l-34.6-8.6l-8.8-19.7l6.1-11.1
		l4.1-1.5l5.6,2.3l4.5,5.7l2.6,3.3l3.5-2.3l6.9-4.5l5-3.3l9.7-4.6l0.8-0.4l0.6-0.7l2.4-2.7l1.8-2l-0.9-2.5l-2.1-5.9l-0.7-6.5
		l-0.1-0.9l-0.4-0.8l-5.8-10.9l0-5.5l0-1.9l-1.3-1.3l-15.1-15.5l-1.5-1.5l-2.1,0.2l-16.2,1.2l1.1-3.4l1-2.8l-2.2-2l-6.7-6l-1.8-1.6
		l-2.3,0.6L167,76.5l-6.3,1.6l0.5,0.7l-2.7,2.7l-14.3,14.5l-0.5,0.5l-0.4-0.4l-1,1.9l-1.2,1.2l0.3,0.4l-1,1.9l-7.7,14.1l-1.7,3.1
		l1,0.9l-0.8,2.5l-3.7,12.1l-0.7-0.4l-0.8,7.2l-0.8,7.6l-0.4-0.2l0.1,2.8l-0.3,3l0.5,0.2l0.1,1.5l0.1,3l-7.7-41.2l-0.2-1.2l-0.8-0.9
		L95.5,90.1L74,51.2L68.3,41l-2.7,11.3L50.5,116l-0.2,1l-2.6-0.7l2.1,7.6l10,36.8l-1.5-0.4l2,7.6l9.4,35.4l0.2,0.9l-0.6,0.1l0.9,1.3
		l0.4,1.5l0.6-0.1l2.1,2.9l13.5,19.2l0.2,0.3l-1.1,0.6l5.6,4.2l10.8,8.3l-21.6,23.7l-0.8,0.8l-0.3,1.1l-10.3,41.6l-0.2,0.7l0.1,0.7
		l3.7,50.7l0.3,4.2l4.2,0l69,0.5c0,0,19.3,0,21.6,0c0.1,0,0.2,0,0.2,0h4.3h0.2h2.6h0.2h4.3h0.2h3.1h4.5v-4.5v-19.8v-4.5h-4.5H150
		l10-16.7l0.4-0.7l0.2-0.7l4.9-23.4l1.1,0.2l1.2-0.5l26-10.1l7.4,7.8l12.5,67.3l0.7,3.8l3.8-0.1l3.3-0.1c-0.1,0,20,0,22.3,0
		c0.1,0,0.2,0,0.2,0h4.3h0.2h2.6h0.2h4.3h0.2h2.3h4.5v-4.5v-19.8v-4.5H258.1z"/>
	<g>
		<path class="st2" d="M235.2,340.4l-3.4-97.9l10.1-26.5l0.3-25.6l-36.8-9.1l-10.6-23.7l8.1-14.6l7.3-2.6l8.3,3.4l5.2,6.7l6.9-4.5
			l-8.7-7.4l6.1-3.8l5.9,8.6l11.8-5.6l2.4-2.7l-2.3-6.4l-0.8-7l-6.4-12l0-6.7l-15.1-15.5l-23,1.7l3.3-9.8l-6.7-6l-29.3,7.3
			l13.4,19.8l-4.3,2.4l-15.4-18.4l-14.3,14.5l15.4,16.4L160,119l-15.6-15.6l-7.7,14.1l14.8,13.7l-2.2,3.8l-13.7-11.9l-3.8,12.4
			l12.7,8.8l-1.8,4.4l-12.1-7.6l-1,9.8l10.6,4.4l-1.5,4l-8.8-4.1l0.4,8.3l19.8,2.5l26.9,3.7l17.4,13.3l-2.8,21.1l-10.4,3.5l-3.1-4
			l9.3-3.4l1-15.6l-13.8-10.1l-25.3-3.4l-21.1-2.3l-6.8-6.6l-8.3-44L91.7,92.6L70,53.4l-15.2,63.7l29.7,9.4l-1.5,4.1l-29-7.9
			L64.3,160l25.2,7.9l1.5,6l-26.3-7.1l9.4,35.4l21.1-3l2.6,4.1l-20.7,4.1l13.5,19.2l19.2-9l3.5,3l-18.9,10.2l14.3,10.9l14.7-12
			l4.1,2.6l-13.2,11.7l16,5.1l8.5-9.6l4.1,1.9l-7.5,10.2l9.9,3.4l13.8-14.9l3.7,2.1l-16.5,17.2L106,245.4l-21.8,23.9L74,310.9
			l3.7,50.7l69,0.5h21.8V351h4.3v11.1h3.1V351h4.3v11.1h3.3v-19.8h-36.7l-4.3-0.5l13.7-23l4.9-23.4l-13.1-2.7l-8.5,1.7l-1-4l9.5-1.8
			l18.1,3.3l28.9-11.2l10.4,11l12.8,68.6l3.3-0.1H244v-8.6h4.3v8.6h3.1v-8.6h4.3v8.6h2.5v-19.8H235.2z M228,110.7
			c2.4,0,4.3,1.9,4.3,4.3c0,2.4-1.9,4.3-4.3,4.3c-2.3,0-4.3-1.9-4.3-4.3C223.8,112.6,225.7,110.7,228,110.7z"/>
	</g>
	<g>
		<path class="st1" d="M268.3,357.7h5.4v1.4h-1.8v5.7h-1.8v-5.7h-1.8V357.7z"/>
		<path class="st1" d="M282.4,357.7v7.1h-1.7l0.1-5l0-0.7l-0.1,0.2c-0.1,0.4-0.1,0.5-0.2,0.7l-1.3,4.7h-1.5l-1.3-4.5l-0.3-1.3
			c0,0.6,0,0.7,0.1,1.3l0.1,4.4h-1.7v-7.1h2.6l1.1,4l0.2,1.1c0.1-0.5,0.1-0.5,0.2-0.9l1.1-4.2H282.4z"/>
	</g>
</g>
</svg>
