<svg xmlns="http://www.w3.org/2000/svg" width="115" height="38" baseProfile="tiny">
  <path fill="#CC092F" d="M0-.07h114.69V38H0z"/>
  <path fill="#FFF" d="M90.2 10.4l-3.59 8.33-3.63-8.57V7.37h-3.63v22.97h3.63V19.77l2.29 5.49 2.68.01 2.25-5.4v10.47h3.65V7.37H90.2v3.03zM28.44 30.35h10.6v-5.31H35.4v1.55h-3.32V11.17h3.32v1.84h3.64V7.37h-10.6v22.98zm78.59-17.34V7.37H96.4v9.43h-1.22v3.81h1.22v9.73l10.6.01v-5.3h-3.63v1.55h-3.32v-6h5.89v-3.8h-5.89v-5.63h3.35v1.84h3.63zM66.76 30.34h10.6V7.37h-10.6v22.97zm3.65-19.17h3.32v15.42h-3.32V11.17zM47.89 16.8h-3.23V7.37h-3.63v9.43h-1.22v3.81h1.22v9.73h3.63v-9.75h3.23v9.75h3.63V7.37h-3.63v9.43zm14.51 3.43l2.19-2.43V7.37h-10.6v9.43H52.8v3.81h1.22v9.73h3.64v-9.7h1.33l3.26 9.69h2.87v-2.16l-2.72-7.94zm-1.46-3.39h-3.32v-5.68h3.32v5.68zm-36.8 11.41h-1.49l-.26-7.46.8-2.07.03-.06v-.06l.03-2.06v-.29l-.28-.07-2.79-.7-.71-1.58.49-.9.33-.12.45.19.36.46.2.26.27-.19.55-.36.41-.26.78-.38.07-.03.04-.06.19-.22.14-.16-.07-.2-.17-.48-.06-.52-.01-.07-.03-.06-.46-.88v-.58l-.1-.1L21.63 8l-.12-.12-.17.01-1.3.11.09-.28.07-.23-.17-.16-.54-.48-.15-.13-.19.04-2.35.6-.51.13.04.06-.22.22-1.16 1.17-.04.04-.03-.03-.08.15-.1.1.03.03-.09.15-.59 1.13-.13.25.07.07-.06.2-.29.97-.06-.03-.06.58-.06.61-.03-.01.01.23-.03.23.04.01v.12l.01.25-.62-3.32-.01-.09-.1-.09-1.71-2.03L9.3 5.33l-.45-.82-.22.91-1.22 5.13-.01.07-.2-.06.17.61.81 2.97-.13-.02.16.61.75 2.85.01.07-.04.01.07.1.03.12h.04l.16.23 1.09 1.55.01.03-.09.04.45.35.87.67-1.74 1.91-.06.07-.03.09-.83 3.35-.01.06v.06l.3 4.08.03.33h.33l5.56.04h3.31v-2.31h-3.05l.81-1.35.03-.06.01-.06.39-1.88.09.01.1-.04 2.1-.81.59.64 1.01 5.42.06.3h3.89v-2.31h-.35v-.04z"/>
  <path d="M22.3 28.62l-.27-7.89.81-2.13.03-2.06-2.97-.74-.85-1.91.65-1.17.59-.2.67.28.42.54.55-.36-.69-.59.49-.3.48.7.96-.45.19-.22-.19-.52-.06-.56-.51-.96v-.56l-1.22-1.25-1.86.13.27-.8-.54-.48-2.35.6 1.07 1.59-.35.2-1.25-1.49-1.15 1.18 1.25 1.32-.23.29-1.26-1.26-.62 1.13 1.19 1.1-.17.3-1.1-.96-.3 1 1.03.71-.14.35-.97-.61-.09.8.85.36-.13.32-.71-.33.03.67 1.59.2 2.16.29 1.4 1.07-.22 1.71-.84.29-.25-.32.75-.27.09-1.26-1.11-.81-2.06-.29-1.69-.19-.54-.55-.67-3.55-1.72-2.06L8.99 5.5l-1.22 5.13 2.39.75-.12.33-2.33-.64.81 3 2.03.64.12.48-2.11-.58.75 2.85 1.69-.25.22.33-1.66.36 1.09 1.55 1.55-.72.27.23-1.52.83 1.16.88 1.19-.97.33.22-1.06.94 1.29.4.68-.77.33.14-.61.83.8.27 1.11-1.2.29.17-1.33 1.39-3.24-1.12-1.75 1.91-.83 3.34.3 4.08 5.56.04h1.75v-.9h.35v.9h.25v-.9h.35v.9h.28v-1.59H15.2l-.35-.04 1.1-1.85.38-1.86-1.06-.22-.68.13-.09-.32.77-.14 1.46.26 2.33-.91.84.88 1.03 5.53h2.09v-.69h.35v.69h.25v-.69h.35v.69h.2v-1.59H22.3zm-.58-18.5c.19 0 .35.16.35.35 0 .19-.16.35-.35.35-.19 0-.35-.16-.35-.35 0-.2.16-.35.35-.35z"/>
</svg>